# xmcd
#
# Track frame offsets: 
#        150
#        18907
#        35701
#        52118
#        69950
#        84717
#        107612
#        122044
#        141478
#        160368
#        177665
#        195334
#        213126
#        229763
#        245625
#        263144
#        280114
#        300122
#        314976
#
# Disc length: 4427 seconds
#
# Revision: 0
# Processed by: cddbd v1.5.1PL0 Copyright (c) Steve Scherf et al.
# Submitted via: ExactAudioCopy v0.95a5
#
DISCID=14114913
DTITLE=Westlife - Î´Öª±êÌâ
DYEAR=1900
DGENRE=blues
TTITLE0=Swear it again
TTITLE1=If i let you go
TTITLE2=Flying without wings
TTITLE3=Fool again
TTITLE4=No one
TTITLE5=Don't wanna fight
TTITLE6=Change the world
TTITLE7=Moments
TTITLE8=Season in the sun
TTITLE9=I need you
TTITLE10=Miss you
TTITLE11=More than words
TTITLE12=Open your heart
TTITLE13=Try again
TTITLE14=What i want is what i've got
TTITLE15=We are one
TTITLE16=Can't lost what you never had
TTITLE17=Until the end of time
TTITLE18=Don't calm the store
EXTD=
EXTT0=
EXTT1=
EXTT2=
EXTT3=
EXTT4=
EXTT5=
EXTT6=
EXTT7=
EXTT8=
EXTT9=
EXTT10=
EXTT11=
EXTT12=
EXTT13=
EXTT14=
EXTT15=
EXTT16=
EXTT17=
EXTT18=
PLAYORDER=
